<?xml version="1.0" encoding="UTF-8" standalone="no"?>
<svg
   xmlns:dc="http://purl.org/dc/elements/1.1/"
   xmlns:cc="http://creativecommons.org/ns#"
   xmlns:rdf="http://www.w3.org/1999/02/22-rdf-syntax-ns#"
   xmlns:svg="http://www.w3.org/2000/svg"
   xmlns="http://www.w3.org/2000/svg"
   xmlns:xlink="http://www.w3.org/1999/xlink"
   xmlns:sodipodi="http://sodipodi.sourceforge.net/DTD/sodipodi-0.dtd"
   xmlns:inkscape="http://www.inkscape.org/namespaces/inkscape"
   inkscape:version="1.0 (4035a4fb49, 2020-05-01)"
   sodipodi:docname="details-2-office-team-work.svg"
   version="1.1"
   viewBox="0 0 242.673 191.626"
   id="OBJECTS">
  <metadata
     id="metadata846">
    <rdf:RDF>
      <cc:Work
         rdf:about="">
        <dc:format>image/svg+xml</dc:format>
        <dc:type
           rdf:resource="http://purl.org/dc/dcmitype/StillImage" />
      </cc:Work>
    </rdf:RDF>
  </metadata>
  <sodipodi:namedview
     inkscape:current-layer="OBJECTS"
     inkscape:window-maximized="1"
     inkscape:window-y="-8"
     inkscape:window-x="-8"
     inkscape:cy="41.641848"
     inkscape:cx="-35.20895"
     inkscape:zoom="2.0995331"
     showgrid="false"
     id="namedview844"
     inkscape:window-height="1017"
     inkscape:window-width="1920"
     inkscape:pageshadow="2"
     inkscape:pageopacity="0"
     guidetolerance="10"
     gridtolerance="10"
     objecttolerance="10"
     borderopacity="1"
     bordercolor="#666666"
     pagecolor="#ffffff" />
  <defs
     id="defs616">
    <linearGradient
       id="linearGradient5350"
       inkscape:collect="always">
      <stop
         id="stop5346"
         offset="0"
         style="stop-color:#ff7f2a;stop-opacity:1;" />
      <stop
         id="stop5348"
         offset="1"
         style="stop-color:#ff7f2a;stop-opacity:0;" />
    </linearGradient>
    <style
       id="style592">.cls-1{fill:#f0f0f0;}.cls-2{fill:url(#linear-gradient);}.cls-3{fill:#fff;}.cls-4{fill:#c7c7c7;}.cls-5{fill:#482c3b;}.cls-6{fill:#a6aeba;}.cls-7{fill:#d2dceb;}.cls-8{fill:#d0dfe1;}.cls-9{fill:#b0bebf;}.cls-10{fill:#ffe0bc;}.cls-11{fill:#0b5a70;}.cls-12{fill:#f7d4b2;}.cls-13{fill:#8b4200;}.cls-14,.cls-21,.cls-25{fill:none;stroke-miterlimit:10;}.cls-14{stroke:#482c3b;}.cls-14,.cls-21{stroke-width:0.25px;}.cls-15{fill:#ffd04d;}.cls-16{fill:#b56537;}.cls-17{fill:#e4ddd7;}.cls-18{fill:#133a50;}.cls-19{fill:#364469;}.cls-20{fill:#e9f2f4;}.cls-21{stroke:#aebfde;}.cls-22{fill:#97a3cc;}.cls-23{fill:url(#linear-gradient-2);}.cls-24{fill:#dbdbdb;}.cls-25{stroke:#e9f2f4;}.cls-26{fill:#00a0b4;}</style>
    <linearGradient
       gradientUnits="userSpaceOnUse"
       gradientTransform="matrix(-0.946, -0.19, 0.189, -0.945, 398.514, 103.642)"
       y2="-36.225"
       x2="397.634"
       y1="-36.225"
       x1="152.574"
       id="linear-gradient">
      <stop
         id="stop594"
         stop-color="#00bfc2"
         offset="0" />
      <stop
         id="stop596"
         stop-color="#00bdc4"
         offset="0.489" />
      <stop
         id="stop598"
         stop-color="#00b6c9"
         offset="0.665" />
      <stop
         id="stop600"
         stop-color="#00abd4"
         offset="0.79" />
      <stop
         id="stop602"
         stop-color="#009ae2"
         offset="0.892" />
      <stop
         id="stop604"
         stop-color="#0084f5"
         offset="0.978" />
      <stop
         id="stop606"
         stop-color="#007dfb"
         offset="1" />
    </linearGradient>
    <linearGradient
       gradientUnits="userSpaceOnUse"
       gradientTransform="matrix(-0.923, -0.32, 0.451, -0.927, 460.639, 301.257)"
       y2="125.62"
       x2="389.536"
       y1="125.365"
       x1="365.24"
       id="linear-gradient-2">
      <stop
         id="stop609"
         stop-color="#eef4fb"
         offset="0" />
      <stop
         id="stop611"
         stop-color="#e3edf8"
         offset="0.311" />
      <stop
         id="stop613"
         stop-color="#cfe1f3"
         offset="1" />
    </linearGradient>
    <linearGradient
       gradientUnits="userSpaceOnUse"
       y2="208.14252"
       x2="241.03485"
       y1="101.92842"
       x1="130.0578"
       id="linearGradient5352"
       xlink:href="#linearGradient5350"
       inkscape:collect="always" />
  </defs>
  <title
     id="title618">details-2-office-team-work</title>
  <path
     id="path620"
     transform="translate(-11.46 -0.001)"
     d="M95.01,57.685c46.025-16.556,80.669-88.821,134.929-30.61s9.237,146.434-56.034,156.869-140.855-18-154.425-64.415C-3.709,40.223,64.135,68.791,95.01,57.685Z"
     class="cls-1" />
  <path
     style="fill:url(#linearGradient5352);fill-opacity:1"
     id="path622"
     transform="translate(-11.46 -0.001)"
     d="M91.727,52.907C137.753,36.352,172.4-35.914,226.659,22.3s9.237,146.434-56.034,156.869S29.77,161.169,16.2,114.754C-6.991,35.445,60.852,64.013,91.727,52.907Z"
     class="cls-2" />
  <path
     id="path624"
     transform="translate(-11.46 -0.001)"
     d="M160.781,27.308l-0.466-1.335-0.466,1.335a4.661,4.661,0,0,1-2.589,2.636h0a4.66,4.66,0,0,1,2.589,2.636l0.466,1.335,0.466-1.335a4.661,4.661,0,0,1,2.589-2.636h0A4.661,4.661,0,0,1,160.781,27.308Z"
     class="cls-3" />
  <path
     id="path626"
     transform="translate(-11.46 -0.001)"
     d="M108.679,124.6l-0.466-1.335-0.466,1.335a4.661,4.661,0,0,1-2.589,2.636h0a4.661,4.661,0,0,1,2.589,2.636l0.466,1.335,0.466-1.335a4.66,4.66,0,0,1,2.589-2.636h0A4.66,4.66,0,0,1,108.679,124.6Z"
     class="cls-3" />
  <path
     id="path628"
     transform="translate(-11.46 -0.001)"
     d="M234.9,62.565l-0.308-.881-0.307.881A3.075,3.075,0,0,1,232.58,64.3h0a3.075,3.075,0,0,1,1.708,1.739l0.307,0.881,0.308-.881a3.075,3.075,0,0,1,1.708-1.739h0A3.075,3.075,0,0,1,234.9,62.565Z"
     class="cls-3" />
  <path
     id="path630"
     transform="translate(-11.46 -0.001)"
     d="M88.329,72.275l-0.307-.881-0.307.881a3.074,3.074,0,0,1-1.708,1.739h0a3.075,3.075,0,0,1,1.708,1.739l0.307,0.881,0.307-.881a3.075,3.075,0,0,1,1.708-1.739h0A3.075,3.075,0,0,1,88.329,72.275Z"
     class="cls-3" />
  <polygon
     id="polygon632"
     points="55.891 191.267 57.608 191.267 71.611 123.007 68.064 123.007 55.891 191.267"
     class="cls-4" />
  <polygon
     id="polygon634"
     points="188.018 191.267 186.301 191.267 172.298 123.007 175.845 123.007 188.018 191.267"
     class="cls-4" />
  <path
     id="path636"
     transform="translate(-11.46 -0.001)"
     d="M65.088,81.919a4.872,4.872,0,0,0-1.11,2.214,3.411,3.411,0,0,1,1.147-1.551c0.705-.448,1.642-0.387,2.353-0.826a3.83,3.83,0,0,0,1.307-1.9,5.383,5.383,0,0,1-1.817,1.053A3.649,3.649,0,0,0,65.088,81.919Z"
     class="cls-5" />
  <rect
     id="rect638"
     height="25.264"
     width="2.607"
     y="158.357"
     x="59.643"
     class="cls-6" />
  <rect
     id="rect640"
     height="3.678"
     width="4.191"
     y="154.678"
     x="58.851"
     class="cls-7" />
  <rect
     id="rect642"
     height="7.884"
     width="3.165"
     y="173.898"
     x="59.364"
     class="cls-7" />
  <rect
     id="rect644"
     height="3.678"
     width="4.191"
     y="181.781"
     x="58.851"
     class="cls-7" />
  <rect
     id="rect646"
     height="6.963"
     width="10.16"
     y="147.715"
     x="55.866"
     class="cls-6" />
  <rect
     id="rect648"
     ry="0.541"
     rx="0.541"
     height="5.214"
     width="28.344"
     y="145.633"
     x="47.281"
     class="cls-6" />
  <polygon
     id="polygon650"
     points="50.848 188.973 58.85 185.006 58.85 182.24 49.798 188.307 50.848 188.973"
     class="cls-6" />
  <circle
     id="circle652"
     r="1.875"
     cy="189.751"
     cx="49.798"
     class="cls-6" />
  <circle
     id="circle654"
     r="1.875"
     cy="189.751"
     cx="60.946"
     class="cls-6" />
  <polygon
     id="polygon656"
     points="71.043 188.973 63.042 185.006 63.042 182.24 72.094 188.307 71.043 188.973"
     class="cls-6" />
  <circle
     id="circle658"
     r="1.875"
     cy="189.751"
     cx="72.094"
     class="cls-6" />
  <rect
     id="rect660"
     height="6.107"
     width="1.015"
     y="183.62"
     x="60.439"
     class="cls-6" />
  <path
     id="path662"
     transform="translate(-11.46 -0.001)"
     d="M54.029,148.49a1.983,1.983,0,0,1-1.994-1.509c-0.685-2.824-1.929-8.1-1.957-21.268a126.566,126.566,0,0,0-4.092-30.247,3.019,3.019,0,0,1,1.442-3.278h0a4.089,4.089,0,0,1,2.04-.545H74.725S85.108,110.216,86.47,116.58s3.264,30.793,3.264,30.793Z"
     class="cls-8" />
  <path
     id="path664"
     transform="translate(-11.46 -0.001)"
     d="M54.853,148.539s-2.359-4.625-2.4-22.825c-0.032-14.986-3.01-27.332-3.869-32.1a1.675,1.675,0,0,1,1.653-1.972H77.1s10.383,18.573,11.745,24.937,3.264,30.793,3.264,30.793Z"
     class="cls-9" />
  <path
     id="path666"
     transform="translate(-11.46 -0.001)"
     d="M79.355,148.542H53.785a1.309,1.309,0,0,1-1.309-1.309h0V143H79.355v5.537h0Z"
     class="cls-8" />
  <path
     id="path668"
     transform="translate(-11.46 -0.001)"
     d="M96.528,148.542H58.741v-3.9A1.639,1.639,0,0,1,60.38,143H96.528a1.639,1.639,0,0,1,1.639,1.639h0V146.9a1.639,1.639,0,0,1-1.637,1.641h0Z"
     class="cls-9" />
  <path
     id="path670"
     transform="translate(-11.46 -0.001)"
     d="M62.544,85.247s3.907-1.237,4.3-2.937c0.32-1.381.83-5.671,0.83-5.671h6.814a31.86,31.86,0,0,0,0,5.074c0.648,3.086,4.519,4.1,4.519,4.1l0.552,9.643-10.043,8.42L59.825,94.14Z"
     class="cls-10" />
  <path
     transform="translate(-11.46 -0.001)"
     d="M78.125,66.13c1.718,2.292,1.368,2.616,1.132,5.773A25.478,25.478,0,0,1,77.9,78.4c-0.463,1.19-2.886,6.307-7.206,4.439a13.291,13.291,0,0,1-5.886-5.331,17.071,17.071,0,0,1-.921-5.736c-0.044-2.1-.054-4.824.021-6.39C64.176,59.852,74.982,61.936,78.125,66.13Z"
     class="cls-10"
     data-name=" Path "
     id="_Path_" />
  <path
     id="path673"
     transform="translate(-11.46 -0.001)"
     d="M89.371,131.117c3.72-.806,5.792.39,8.021,3.064s1.337,9.137,0,14.485-6.463,40.98-6.463,40.98H87.141s-0.973-14.04-1.641-24.291,1.62-24.935,1.62-24.935l-14.465-9.3S86.03,131.841,89.371,131.117Z"
     class="cls-11" />
  <path
     id="path675"
     transform="translate(-11.46 -0.001)"
     d="M89.193,125.954c2.84,2.652,11.2,7.123,9.533,12.651l-11.2,4.746s-11.38-4.125-14.871-12.235l-3.49-8.11,7.5-2.984Z"
     class="cls-11" />
  <path
     id="path677"
     transform="translate(-11.46 -0.001)"
     d="M81.013,133.081c2.06,1.488,7.627,3.938,6.513,10.271-0.568,3.23-9.674,22.74-14.648,30.939-2.535,4.179-7.05,12.925-7.05,12.925l-4.234,1.012s3.262-10.616,5.49-20.421S75.8,146.3,75.8,146.3a66.89,66.89,0,0,0-8.357-4.794c-3.566-1.56-5.484-2.2-.136-7.321S77,130.183,81.013,133.081Z"
     class="cls-11" />
  <path
     id="path679"
     transform="translate(-11.46 -0.001)"
     d="M89.193,102.911a26.168,26.168,0,0,0,2.2,6.4c0.89,1.553,19.259,8.323,19.259,8.323H99.922s-10.213-1.339-13.127-5.256a70.742,70.742,0,0,1-5.616-9.472h8.014Z"
     class="cls-12" />
  <path
     style="fill:#ffb380"
     id="path681"
     transform="translate(-11.46 -0.001)"
     d="M82.614,87.156c1.9,0.845,3.655,5.645,5.058,9.735a26.27,26.27,0,0,1,1.521,6.02s-4.909,2.807-7.513,2.105c0,0-2.473-8.884-.77-13.372Z"
     class="cls-11" />
  <path
     style="fill:#ffb380"
     id="path683"
     transform="translate(-11.46 -0.001)"
     d="M73.143,126.275c5.352-.214,10.7-0.344,16.051-0.321-2.6-1.686-4.9-2.861-5.4-3.361-1.114-1.114-.736-11.04.083-14.124s0.769-6.656.176-8.247-1.444-13.066-1.444-13.066L79,85.815s1.106,8.325-7.642,8.325c-8.783,0-8.821-8.893-8.821-8.893l-5.6,1.24s-0.413,10.84-.205,15.759,2.545,13.439,3.213,17.9c0.52,3.469-.443,5.59-1.106,8.145A35.584,35.584,0,0,1,73.143,126.275Z"
     class="cls-11" />
  <path
     id="path685"
     transform="translate(-11.46 -0.001)"
     d="M66.091,186.5c-1.2-.24-1.628.24-2.711,0.962a4.569,4.569,0,0,1-2.285.721v3.247h8.364Z"
     class="cls-13" />
  <path
     id="path687"
     transform="translate(-11.46 -0.001)"
     d="M91.659,187.1s-0.122,1.126-1.926,1.634a3.069,3.069,0,0,1-3.031-.982l-0.4,3.678,14.257,0.085Z"
     class="cls-13" />
  <path
     id="path689"
     transform="translate(-11.46 -0.001)"
     d="M91.909,116.79c-1.6-.19-3.138-1.688-9.34-1.762A95.52,95.52,0,0,1,72.1,112.99a22.021,22.021,0,0,1-5.912-2.551s-2.273-8.474-3.14-13.849c-2.521-.277-5.035-0.6-7.533-1.023-0.089,6.712,4.666,18.646,6.249,19.836,3.081,2.318,10.322,2.2,12.061,2.234,4.028,0.073,21.192.536,21.192,0.536S96.336,117.316,91.909,116.79Z"
     class="cls-10" />
  <path
     style="fill:#ffb380"
     id="path691"
     transform="translate(-11.46 -0.001)"
     d="M65.067,105.079s-2.284-13.411-2.945-14.822C58.7,82.964,54,86.85,54.692,92.493c0.294,2.4.481,8.612,1.7,14.477A19.128,19.128,0,0,0,65.067,105.079Z"
     class="cls-11" />
  <polygon
     id="polygon693"
     points="76.794 118.173 83.553 118.173 90.312 94.525 85.173 94.525 76.794 118.173"
     class="cls-6" />
  <polygon
     id="polygon695"
     points="78.734 118.173 105.113 118.173 111.872 94.525 85.493 94.525 78.734 118.173"
     class="cls-7" />
  <rect
     id="rect697"
     height="1.764"
     width="30.26"
     y="117.638"
     x="74.853"
     class="cls-7" />
  <rect
     id="rect699"
     height="1.764"
     width="15.13"
     y="117.638"
     x="59.723"
     class="cls-6" />
  <ellipse
     id="ellipse701"
     transform="translate(-45.933 165.227) rotate(-67.133)"
     ry="2.803"
     rx="3.557"
     cy="108.59"
     cx="107.265"
     class="cls-6" />
  <path
     id="path703"
     transform="translate(-11.46 -0.001)"
     d="M58.847,128.287c-1,4.8,1.361,15.273,16.953,18.01l8.9,3.6a11.719,11.719,0,0,0,2.425-9.479c-1.115-5.5-7.359-7.59-11.473-14.24,0,0-6.463-2.7-10.616-1.256A18.431,18.431,0,0,0,58.847,128.287Z"
     class="cls-11" />
  <path
     id="path705"
     transform="translate(-11.46 -0.001)"
     d="M79.459,69.4s-1.876.073-4.181-3.4c0,0,.248,1.573-1.994,3.692s-4.253,1.545-4.591,2.568a7.772,7.772,0,0,0-.369,1.943,1.029,1.029,0,0,1-.74-0.554,5.067,5.067,0,0,0-.769-1.513c-1.024-.678-2.784.231-2.22,2.224a4.267,4.267,0,0,0,1.7,2.076c-0.026,3.4,1.362,4.448,1.362,4.448s-2.3,1.045-3.476.566C62.5,80.761,62.069,79.7,62.13,77.8a4.523,4.523,0,0,1-2.254-1.172c-2.349-2.331.36-8.971,1.448-9.791,0,0-2.568-3.637.659-6.08,3.274-2.479,4.539,1.528,4.539,1.528,1.087-.82,5.545-1.1,7.816-0.25C80.73,64.419,79.459,69.4,79.459,69.4Z"
     class="cls-5" />
  <path
     id="path707"
     transform="translate(-11.46 -0.001)"
     d="M75.126,65.963c0.2,1.3.01,4.317-3.47,6.679"
     class="cls-14" />
  <rect
     id="rect709"
     height="25.264"
     width="2.607"
     y="158.356"
     x="206.193"
     class="cls-6" />
  <rect
     id="rect711"
     height="3.678"
     width="4.191"
     y="154.678"
     x="205.401"
     class="cls-7" />
  <rect
     id="rect713"
     height="7.884"
     width="3.165"
     y="173.897"
     x="205.914"
     class="cls-7" />
  <rect
     id="rect715"
     height="3.678"
     width="4.191"
     y="181.782"
     x="205.401"
     class="cls-7" />
  <rect
     id="rect717"
     height="6.963"
     width="10.16"
     y="147.715"
     x="202.417"
     class="cls-6" />
  <rect
     id="rect719"
     ry="0.541"
     rx="0.541"
     height="5.214"
     width="28.344"
     y="145.633"
     x="192.817"
     class="cls-6" />
  <polygon
     id="polygon721"
     points="217.594 188.973 209.593 185.006 209.593 182.24 218.645 188.307 217.594 188.973"
     class="cls-6" />
  <circle
     id="circle723"
     r="1.875"
     cy="189.751"
     cx="218.645"
     class="cls-6" />
  <circle
     id="circle725"
     r="1.875"
     cy="189.751"
     cx="207.497"
     class="cls-6" />
  <polygon
     id="polygon727"
     points="197.399 188.973 205.401 185.006 205.401 182.24 196.349 188.307 197.399 188.973"
     class="cls-6" />
  <circle
     id="circle729"
     r="1.875"
     cy="189.751"
     cx="196.349"
     class="cls-6" />
  <rect
     id="rect731"
     height="6.107"
     width="1.015"
     y="183.621"
     x="206.989"
     class="cls-6" />
  <path
     id="path733"
     transform="translate(-11.46 -0.001)"
     d="M237.334,148.49a1.983,1.983,0,0,0,1.994-1.509c0.685-2.824,1.929-8.1,1.957-21.268,0.031-14.535,7.65-25.588,8.691-30.247a3.019,3.019,0,0,0-1.442-3.278h0a4.089,4.089,0,0,0-2.04-.545H216.638s-10.383,18.573-11.745,24.937-3.264,30.793-3.264,30.793Z"
     class="cls-8" />
  <path
     id="path735"
     transform="translate(-11.46 -0.001)"
     d="M236.51,148.539s2.359-4.625,2.4-22.825c0.032-14.986,7.608-27.332,8.467-32.1a1.675,1.675,0,0,0-1.653-1.972H214.259s-10.383,18.573-11.745,24.937-3.264,30.793-3.264,30.793Z"
     class="cls-9" />
  <path
     id="path737"
     transform="translate(-11.46 -0.001)"
     d="M203.739,143h35.148v4.228a1.309,1.309,0,0,1-1.309,1.309H203.739V143h0Z"
     class="cls-8" />
  <path
     id="path739"
     transform="translate(-11.46 -0.001)"
     d="M194.835,143h11.657a1.639,1.639,0,0,1,1.639,1.639h0v3.9h-13.3A1.638,1.638,0,0,1,193.2,146.9v-2.259A1.639,1.639,0,0,1,194.835,143Z"
     class="cls-9" />
  <path
     id="path741"
     transform="translate(-11.46 -0.001)"
     d="M209.966,86.18c-2.433,2.422-2.6,14.593-5.059,20.91,0,0-16.775,6.558-24.421,8.484l2.654,2.8s22.729-5.463,25.611-7.381c4.406-2.931,6.967-14.791,7.387-20.724S212.509,83.649,209.966,86.18Z"
     class="cls-12" />
  <path
     id="path743"
     transform="translate(-11.46 -0.001)"
     d="M182.351,116.014l-1.865-.439s-3.836-.351-5.064-0.526-2.7,1.228-4.374,1.754a15.973,15.973,0,0,0-3.3,1.569h1.34l2.733,0.448,2.464-.448a24.252,24.252,0,0,1,4.626,0,20,20,0,0,0,4.233,0Z"
     class="cls-12" />
  <path
     id="path745"
     transform="translate(-11.46 -0.001)"
     d="M198.953,128.28c-5.205,1.725-11.589,4.491-13.458,6.23s-5.552,4.208-2.582,13.765c1.9,6.106,10.171,37.039,10.171,37.039l4.192-.746s-1.489-17.923-2.981-31.332c-0.723-6.5-.969-8.313-0.969-8.313l5.627-2.291c7.133-2.931,4.688-15.182,4.688-15.182Z"
     class="cls-12" />
  <path
     id="path747"
     transform="translate(-11.46 -0.001)"
     d="M187.3,132.643c-1.869,1.739-3.191,1.157-6,10.763-1.793,6.138-8.332,37.093-8.332,37.093l3.906,1.7c5.282-14.8,5.275-14.782,11.447-26.791a53.44,53.44,0,0,0,4.245-11.563l11.409-.685c7.133-2.931,4.688-13.343,4.688-13.343S189.17,130.9,187.3,132.643Z"
     class="cls-10" />
  <path
     id="path749"
     transform="translate(-11.46 -0.001)"
     d="M230.52,123.439c0,5,3.618,10.52-.575,16.2-3.792,5.141-25.967,3.511-25.967,3.511s3.128-5.417.158-9.518c-1.9-2.621-6.274-5.048-6.274-5.048l12.4-4.007,9.959-7.736Z"
     class="cls-15" />
  <path
     id="path751"
     transform="translate(-11.46 -0.001)"
     d="M218.077,85.077c-0.671,2.28-5.428,2.235-8.941-2.022s-6.057-11.513-2.552-16.639,8.193,4.8,9.79,10.082A37.061,37.061,0,0,1,218.077,85.077Z"
     class="cls-16" />
  <path
     id="path753"
     transform="translate(-11.46 -0.001)"
     d="M207.007,66.344c-0.942,1.119-.04,5.381.125,6.014,0.319,1.224-.3,2.909.053,3.193a2.417,2.417,0,0,0,1.135.2c0.064,0.015,1.715,3.253,2.007,3.924,0.445,1.021,2.839-.788,3.563-0.022,0.525,0.556.548,1.585,0.726,2.862l-1.4,5.653,11.424-2.2a55.679,55.679,0,0,1-4.186-7.237c-0.852-2.271.213-4.754-.071-7.805s-1.646-6.972-5.96-7.379A8.554,8.554,0,0,0,207.007,66.344Z"
     class="cls-10" />
  <path
     id="path755"
     transform="translate(-11.46 -0.001)"
     d="M210.62,123.931a24.212,24.212,0,0,1,7.654,0c4.752,0.636,11.795-.7,11.795-0.7s-2.886-14.881-2.709-21.631,0.711-14.031.711-14.031l-12.655-2.131s-3.064,1.1-4.8,6.039S209.159,117.744,210.62,123.931Z"
     class="cls-17" />
  <path
     style="fill:#ff6600"
     id="path757"
     transform="translate(-11.46 -0.001)"
     d="M214.616,82.511c-0.932.933-4,2.131-4,3.463s-2.4,12.788-2.264,15.186,1.014,11.508.481,14.305a69.889,69.889,0,0,0-.533,9l2.316-.533s-0.666-15.844,0-21.7,4.8-16.651,4.8-16.651l-1.554-.533Z"
     class="cls-18" />
  <path
     style="fill:#ff6600"
     id="path759"
     transform="translate(-11.46 -0.001)"
     d="M219.221,85.575l-3.8-.133s-1.28,5.861-1.28,17.147a182.283,182.283,0,0,0,1.946,22.309,23.369,23.369,0,0,0,6.944,1.273,16.562,16.562,0,0,0,7.042-1.332,145.591,145.591,0,0,1,0-18.35c0.666-9.058,3.088-11.118,2.62-17.051-0.776-9.84-9.68-6.394-9.68-6.394Z"
     class="cls-18" />
  <path
     id="path761"
     transform="translate(-11.46 -0.001)"
     d="M215.415,85.442s6.128-2.931,7.06-4.8a6.343,6.343,0,0,1,.533,2.4c-0.133.8-5.994,6.394-5.994,6.394Z"
     class="cls-15" />
  <path
     id="path763"
     transform="translate(-11.46 -0.001)"
     d="M220.491,86.141c1.5-7.563-2.52-9.787-6.919-12.483a22.8,22.8,0,0,1-6.988-7.243s1.7-5.535,6.67-6.67,11.311,1.962,12.914,9.792c1.136,5.551,2.622,7.508,6.386,10.218,4.54,3.269,5.9,11.6.6,15.615-4.9,3.714-2.067-5.107-3.885-10.059-0.308-.838-4.118,3.421-6.246,4.126C220.793,90.177,220.25,87.358,220.491,86.141Z"
     class="cls-16" />
  <path
     id="path765"
     transform="translate(-11.46 -0.001)"
     d="M214.616,82.511a3.327,3.327,0,0,0,.8,2.931l-2.264,3.2s-0.666-2.531,0-3.6S214.616,82.511,214.616,82.511Z"
     class="cls-15" />
  <path
     id="path767"
     transform="translate(-11.46 -0.001)"
     d="M192.792,183.072s0.122,1.126,1.926,1.634a3.069,3.069,0,0,0,3.031-.982l0.4,3.678-5.761,4.062H187.6l2.589-2.873Z"
     class="cls-18" />
  <path
     id="path769"
     transform="translate(-11.46 -0.001)"
     d="M173.588,177.977a1.978,1.978,0,0,0,.715,2.61,3.069,3.069,0,0,0,3.186-.013L176.75,184.2l-13.6-4.256Z"
     class="cls-18" />
  <path
     style="fill:#ffccaa"
     id="path771"
     transform="translate(-11.46 -0.001)"
     d="M226.359,87.324c-1.315,3.171-5.176,13.585-7.637,19.9,0,0-17.876,5.726-25.522,7.652l2.654,2.8s21.8-3.338,26.531-5.542c4.8-2.235,9.34-17.609,10.146-21.643C233.694,84.659,227.775,83.9,226.359,87.324Z"
     class="cls-10" />
  <path
     id="path773"
     transform="translate(-11.46 -0.001)"
     d="M195.059,115.318l-1.865-.438s-3.836-.351-5.064-0.526-2.7,1.228-4.374,1.754a15.966,15.966,0,0,0-3.3,1.569h1.34l2.733,0.448,2.465-.448a24.251,24.251,0,0,1,4.626,0,20.007,20.007,0,0,0,4.233,0Z"
     class="cls-10" />
  <path
     id="path775"
     transform="translate(-11.46 -0.001)"
     d="M157.629,52.036l4.85,11.245-1.244.536-4.852-11.251a0.252,0.252,0,0,1,.131-0.331h0L157.3,51.9A0.252,0.252,0,0,1,157.629,52.036Z"
     class="cls-19" />
  <path
     id="path777"
     transform="translate(-11.46 -0.001)"
     d="M157.6,54.784l0.809-.349-1.361-3.155a0.441,0.441,0,0,0-.579-0.23h0a0.441,0.441,0,0,0-.23.579Z"
     class="cls-19" />
  <path
     id="path779"
     transform="translate(-11.46 -0.001)"
     d="M148.315,65.314s4.768,13.1,6.5,13.034c1.3-.047,10.019-11.961,11.422-14.024s4.125-6.909,4.125-6.909l-3.547-1.1s-6.1,7.352-7.672,8.672-2.227,1.815-2.227,1.815L155.1,61.843Z"
     class="cls-12" />
  <path
     id="path781"
     transform="translate(-11.46 -0.001)"
     d="M150.952,51.67c1.92,0.511,2.583,2.219,3.408,5.746a70.237,70.237,0,0,0,2.024,6.855l-6.314,2.941s-1.139-6.269-1.559-10.229S149.277,51.224,150.952,51.67Z"
     class="cls-19" />
  <path
     id="path783"
     transform="translate(-11.46 -0.001)"
     d="M125.022,186.514v4.638h8.913s-0.335-1.679-4.562-2.453l-0.622-2.184h-3.729Z"
     class="cls-18" />
  <path
     id="path785"
     transform="translate(-11.46 -0.001)"
     d="M143.859,186.514v4.638h8.913s-0.335-1.679-4.562-2.453l-0.622-2.184h-3.729Z"
     class="cls-18" />
  <path
     id="path787"
     transform="translate(-11.46 -0.001)"
     d="M126.97,93s-1.622,14.746-1.679,30.587-1,62.912-1,62.912h6.4s6.6-45.487,8.994-55.67,8.632-37.638,8.632-37.638Z"
     class="cls-18" />
  <path
     id="path789"
     transform="translate(-11.46 -0.001)"
     d="M136.805,39.449s-0.414,3.225-.754,4.866a13.118,13.118,0,0,1-.873,3.007,36.8,36.8,0,0,1-3.957,4.494s10.607,5.6,13.725,5.6,2.025-6.255,2.025-6.255-3.4-2.687-3.907-4.045a30.536,30.536,0,0,1-.789-5.29Z"
     class="cls-10" />
  <path
     id="path791"
     transform="translate(-11.46 -0.001)"
     d="M140.881,109.183s1.2,24.138,1.439,28.89,0,48.4,0,48.4,5.995,0.162,5.995,0,5.652-46.03,6.384-57.741,0.3-25.593,1.275-27.213-2.624-8.445-2.624-8.445l-8.485,2.263Z"
     class="cls-18" />
  <path
     id="path793"
     transform="translate(-11.46 -0.001)"
     d="M133.381,48.663l-10.9,4.7s2.156,8.826,2.276,12.334,1.378,31.219,1.378,31.219,3.348,5.186,19.456,3.121c6.211-.8,9.265-3.824,9.265-3.824s-1.741-30.516-2.221-34.024-1.678-10.523-1.678-10.523L145.7,50.049l-2.144,3.2Z"
     class="cls-20" />
  <path
     id="path795"
     transform="translate(-11.46 -0.001)"
     d="M146.369,94.63"
     class="cls-21" />
  <path
     id="path797"
     transform="translate(-11.46 -0.001)"
     d="M143.554,53.251"
     class="cls-21" />
  <polygon
     id="polygon799"
     points="122.407 46.761 132.094 53.25 129.431 56.311 121.921 48.662 122.407 46.761"
     class="cls-19" />
  <polygon
     id="polygon801"
     points="132.094 53.25 134.736 55.371 134.238 50.052 133.249 48.662 132.094 53.25"
     class="cls-19" />
  <path
     transform="translate(-11.46 -0.001)"
     d="M153.759,72.27l9.312,2.69a2.177,2.177,0,0,0,2.484-1.1l9.068-19.375a1.449,1.449,0,0,0-.961-2.071l-9.23-2.727c-1.681-.165-2.521.163-2.947,1.055L152.4,69.97C151.971,70.872,152.134,71.5,153.759,72.27Z"
     class="cls-22"
     data-name=" Path 2"
     id="_Path_2" />
  <path
     transform="translate(-11.46 -0.001)"
     d="M154.289,72.465l9.357,2.708a2.186,2.186,0,0,0,2.5-1.1l9.1-19.462a1.455,1.455,0,0,0-.97-2.078L165,49.8a2.25,2.25,0,0,0-2.589,1.1l-9.165,19.4A1.519,1.519,0,0,0,154.289,72.465Z"
     class="cls-23"
     data-name=" Path 3"
     id="_Path_3" />
  <path
     id="path805"
     transform="translate(-11.46 -0.001)"
     d="M127.259,67.253s8.658,14.37,9.813,14.865,16.093-9.231,18.9-11.046,5.152-3.6,5.5-3.887a14.96,14.96,0,0,0,1.155-3.207,4.529,4.529,0,0,1-.392-0.516l-0.371.2,0.2-1.165-0.351-.66-0.34.113-0.114-1.179-0.516-.887s-1.471,1.664-2.379,2.654a13.416,13.416,0,0,1-1.98,1.732,14.313,14.313,0,0,0,0-1.9,5.382,5.382,0,0,1,.165-1.4l-1.447.87s-1.275,4.022-1.523,4.34a7.343,7.343,0,0,1-4.372,4.112,101.767,101.767,0,0,1-9.647,3.252c0.245-.035-5.648-10.739-5.648-10.739Z"
     class="cls-10" />
  <path
     id="path807"
     transform="translate(-11.46 -0.001)"
     d="M122.068,58.8c0.824,3.914,6.555,12.456,6.555,12.456l7.029-5.267s-2.752-5.5-4.288-8.385c-1.7-3.191-3.285-7.067-6.293-5.936C122.167,52.757,121.408,55.662,122.068,58.8Z"
     class="cls-19" />
  <path
     id="path809"
     transform="translate(-11.46 -0.001)"
     d="M149.128,31.2c0.75,0.679,1.994,2.045,1.894,2.842a31.19,31.19,0,0,1-.664,4.481c-0.4,1.321-1.171,4.786-1.736,6.307s-1.217,3.608-1.685,3.8a14.519,14.519,0,0,1-5.345-1.1c-0.773-.567-4.868-5.068-4-8.4,0,0-1.074.14-1.733-3.151-0.172-.858,3.316-3.3,3.859-4.148,1.318-2.068,6.127-.44,7.5-0.334A2.877,2.877,0,0,0,149.128,31.2Z"
     class="cls-10" />
  <path
     id="path811"
     transform="translate(-11.46 -0.001)"
     d="M151.022,34.038a1.141,1.141,0,0,0-1.327-.918l-0.009,0a11.708,11.708,0,0,1-4.757-.331,11.958,11.958,0,0,1-2.958-1.364,7.158,7.158,0,0,1-.966,2.547,4.85,4.85,0,0,0-1.086,2.1,1.5,1.5,0,0,1-1.043.853s-0.386-1.852-1.216-1.982c-1.645-.258-1.446,1.963-0.769,2.686a13.668,13.668,0,0,0,1.389,1.278,8.459,8.459,0,0,1-.527,1.645,7.923,7.923,0,0,1-1.35,1.656s-0.434-4.417-1.479-6.443-0.98-5.753,2.037-6.537a4.281,4.281,0,0,1,4.654-3.2c3.965,0.169,7.132,1.753,8.88,1.585a5.375,5.375,0,0,0,2.267-.529s0.873,2.867-.264,4.387A10.046,10.046,0,0,0,151.022,34.038Z"
     class="cls-13" />
  <polygon
     id="polygon813"
     points="171.406 118.173 167.699 118.173 163.992 94.525 166.811 94.525 171.406 118.173"
     class="cls-6" />
  <polygon
     id="polygon815"
     points="170.342 118.173 155.875 118.173 152.169 94.525 166.635 94.525 170.342 118.173"
     class="cls-7" />
  <rect
     id="rect817"
     height="1.764"
     width="15.725"
     y="117.637"
     x="155.681"
     class="cls-7" />
  <rect
     id="rect819"
     height="1.764"
     width="19.826"
     y="117.637"
     x="171.406"
     class="cls-6" />
  <path
     id="path821"
     transform="translate(-11.46 -0.001)"
     d="M173.859,107.5c0.419,1.81.124,3.766-.658,4.367s-1.756-.378-2.174-2.189-0.124-3.766.658-4.367S173.438,105.69,173.859,107.5Z"
     class="cls-6" />
  <rect
     id="rect823"
     height="3.422"
     width="178.065"
     y="119.585"
     x="29.798"
     class="cls-24" />
  <polygon
     id="polygon825"
     points="48.801 191.267 50.518 191.267 64.521 123.007 60.974 123.007 48.801 191.267"
     class="cls-24" />
  <polygon
     id="polygon827"
     points="180.928 191.267 179.21 191.267 165.208 123.007 168.755 123.007 180.928 191.267"
     class="cls-24" />
  <rect
     id="rect829"
     height="23.81"
     width="24.049"
     y="27.672"
     x="164.482"
     class="cls-20" />
  <rect
     id="rect831"
     height="17.012"
     width="8.422"
     y="31.288"
     x="168.085"
     class="cls-3" />
  <rect
     id="rect833"
     height="4.55"
     width="24.049"
     y="23.122"
     x="164.482"
     class="cls-25" />
  <circle
     style="fill:#ff5555"
     id="circle835"
     r="2.991"
     cy="34.066"
     cx="182.641"
     class="cls-26" />
  <polygon
     id="polygon837"
     points="182.405 35.243 181.021 33.462 182.275 33.986 185.158 31.465 182.405 35.243"
     class="cls-3" />
  <circle
     style="fill:#ff5555"
     id="circle839"
     r="2.991"
     cy="42.941"
     cx="182.641"
     class="cls-26" />
  <polygon
     id="polygon841"
     points="182.405 44.119 181.021 42.337 182.275 42.862 185.158 40.34 182.405 44.119"
     class="cls-3" />
</svg>
