<?xml version="1.0" encoding="UTF-8" standalone="no"?>
<svg
   xmlns:dc="http://purl.org/dc/elements/1.1/"
   xmlns:cc="http://creativecommons.org/ns#"
   xmlns:rdf="http://www.w3.org/1999/02/22-rdf-syntax-ns#"
   xmlns:svg="http://www.w3.org/2000/svg"
   xmlns="http://www.w3.org/2000/svg"
   xmlns:sodipodi="http://sodipodi.sourceforge.net/DTD/sodipodi-0.dtd"
   xmlns:inkscape="http://www.inkscape.org/namespaces/inkscape"
   inkscape:version="1.0 (4035a4fb49, 2020-05-01)"
   sodipodi:docname="logo.svg"
   version="1.1"
   viewBox="0 0 155.237 41.632"
   data-name="Layer 3"
   id="Layer_3">
  <metadata
     id="metadata3231">
    <rdf:RDF>
      <cc:Work
         rdf:about="">
        <dc:format>image/svg+xml</dc:format>
        <dc:type
           rdf:resource="http://purl.org/dc/dcmitype/StillImage" />
      </cc:Work>
    </rdf:RDF>
  </metadata>
  <sodipodi:namedview
     inkscape:current-layer="Layer_3"
     inkscape:window-maximized="1"
     inkscape:window-y="-8"
     inkscape:window-x="-8"
     inkscape:cy="20.816"
     inkscape:cx="77.6185"
     inkscape:zoom="6.5641568"
     showgrid="false"
     id="namedview3229"
     inkscape:window-height="1017"
     inkscape:window-width="1920"
     inkscape:pageshadow="2"
     inkscape:pageopacity="0"
     guidetolerance="10"
     gridtolerance="10"
     objecttolerance="10"
     borderopacity="1"
     bordercolor="#666666"
     pagecolor="#ffffff" />
  <defs
     id="defs3210">
    <style
       id="style3208">.cls-1{fill:#00bfd8;}.cls-2{fill:#fff;}.cls-3{fill:#393939;}</style>
  </defs>
  <title
     id="title3212">logo</title>
  <circle
     style="fill:#ff6600"
     id="circle3214"
     r="20.816"
     cy="20.816"
     cx="20.816"
     class="cls-1" />
  <path
     id="path3216"
     d="M19.155,30.414a8.617,8.617,0,0,1-3.349-.613,7.227,7.227,0,0,1-4.115-4.341,9.744,9.744,0,0,1-.543-3.311,11.439,11.439,0,0,1,.954-4.622,12.191,12.191,0,0,1,2.615-3.835,12.607,12.607,0,0,1,3.928-2.619,12.233,12.233,0,0,1,4.886-.975,8.317,8.317,0,0,1,5.07,1.4,4.747,4.747,0,0,1,1.89,4.059q0,6.324-11.3,6.324H17.805q-0.711,0-1.5-.075v0.487a5.34,5.34,0,0,0,.9,3.219,3.276,3.276,0,0,0,2.844,1.235,5.9,5.9,0,0,0,2.825-.711,5.493,5.493,0,0,0,2.114-1.983l3.966,1.234a10.587,10.587,0,0,1-1.833,2.077,11.972,11.972,0,0,1-2.376,1.627,12.926,12.926,0,0,1-2.714,1.051A11.3,11.3,0,0,1,19.155,30.414Zm3.629-16.686a5.165,5.165,0,0,0-2.02.392A5.682,5.682,0,0,0,19.1,15.186a7.625,7.625,0,0,0-1.29,1.576,8.924,8.924,0,0,0-.9,1.908c0.4,0.026.788,0.039,1.16,0.039h1.16a21.126,21.126,0,0,0,3.049-.187A7.047,7.047,0,0,0,24.3,17.96a2.714,2.714,0,0,0,1.1-.875,2.073,2.073,0,0,0,.337-1.178,1.821,1.821,0,0,0-.823-1.627,3.815,3.815,0,0,0-2.139-.551h0Z"
     class="cls-2" />
  <path
     id="path3218"
     d="M72.567,31.6v4.086h-20.1V6.382H72.2v4.086H57.09v8.337H70.173v3.838H57.09V31.6H72.567Z"
     class="cls-3" />
  <path
     id="path3220"
     d="M81.565,35.686L73.31,14.1h4.664l6.191,17.748L90.4,14.1H94.69L86.435,35.686h-4.87Z"
     class="cls-3" />
  <path
     id="path3222"
     d="M106.865,36.1a11.227,11.227,0,0,1-4.6-.908,10.575,10.575,0,0,1-5.717-6,12.028,12.028,0,0,1,0-8.544,10.55,10.55,0,0,1,2.25-3.57,10.978,10.978,0,0,1,3.508-2.435,11.9,11.9,0,0,1,9.121,0,10.993,10.993,0,0,1,3.509,2.435,10.593,10.593,0,0,1,2.249,3.57,12.028,12.028,0,0,1,0,8.544,10.591,10.591,0,0,1-2.251,3.569,10.986,10.986,0,0,1-3.509,2.436A11.123,11.123,0,0,1,106.865,36.1ZM100.426,24.96a8.162,8.162,0,0,0,.5,2.889,7.171,7.171,0,0,0,1.362,2.291,6.367,6.367,0,0,0,2.043,1.526,6.055,6.055,0,0,0,5.076,0,6.214,6.214,0,0,0,2.043-1.548,7.42,7.42,0,0,0,1.362-2.311,8.617,8.617,0,0,0,0-5.758,7.39,7.39,0,0,0-1.362-2.332,6.226,6.226,0,0,0-2.043-1.547,5.851,5.851,0,0,0-2.538-.558,5.589,5.589,0,0,0-2.5.578,6.5,6.5,0,0,0-2.044,1.57,7.715,7.715,0,0,0-1.383,2.332A7.932,7.932,0,0,0,100.426,24.96Z"
     class="cls-3" />
  <path
     id="path3224"
     d="M122.053,5.56h4.54v23.9a2.685,2.685,0,0,0,.619,1.878,2.222,2.222,0,0,0,1.733.682A4.052,4.052,0,0,0,130,31.855q0.6-.166,1.136-0.372l0.66,3.55a10.547,10.547,0,0,1-2.353.722,12.76,12.76,0,0,1-2.436.269,4.981,4.981,0,0,1-3.652-1.279,4.864,4.864,0,0,1-1.3-3.632V5.56h0Z"
     class="cls-3" />
  <path
     id="path3226"
     d="M144.133,36.1a11.227,11.227,0,0,1-4.6-.908,10.575,10.575,0,0,1-5.717-6,12.028,12.028,0,0,1,0-8.544,10.55,10.55,0,0,1,2.25-3.57,10.978,10.978,0,0,1,3.508-2.435,11.9,11.9,0,0,1,9.121,0,10.993,10.993,0,0,1,3.509,2.435,10.593,10.593,0,0,1,2.249,3.57,12.028,12.028,0,0,1,0,8.544A10.591,10.591,0,0,1,152.2,32.76a10.986,10.986,0,0,1-3.509,2.436A11.123,11.123,0,0,1,144.133,36.1ZM137.695,24.96a8.162,8.162,0,0,0,.5,2.889,7.171,7.171,0,0,0,1.362,2.291,6.367,6.367,0,0,0,2.043,1.526,6.055,6.055,0,0,0,5.076,0,6.214,6.214,0,0,0,2.043-1.548,7.42,7.42,0,0,0,1.362-2.311,8.617,8.617,0,0,0,0-5.758,7.39,7.39,0,0,0-1.362-2.332,6.226,6.226,0,0,0-2.043-1.547,5.851,5.851,0,0,0-2.538-.558,5.589,5.589,0,0,0-2.5.578,6.5,6.5,0,0,0-2.045,1.57,7.715,7.715,0,0,0-1.383,2.332A7.932,7.932,0,0,0,137.695,24.96Z"
     class="cls-3" />
</svg>
